<?xml version="1.0" standalone="no"?>
<!DOCTYPE svg PUBLIC "-//W3C//DTD SVG 20010904//EN"
 "http://www.w3.org/TR/2001/REC-SVG-20010904/DTD/svg10.dtd">
<svg version="1.0" xmlns="http://www.w3.org/2000/svg"
 width="300.000000pt" height="300.000000pt" viewBox="0 0 300.000000 300.000000"
 preserveAspectRatio="xMidYMid meet">

<g transform="translate(0.000000,300.000000) scale(0.100000,-0.100000)"
fill="#000000" stroke="none">
<path d="M805 2114 c-12 -12 -14 -25 -9 -48 18 -72 9 -98 -181 -546 -167 -393
-185 -441 -185 -500 0 -102 87 -200 178 -200 36 0 52 16 52 52 l0 29 43 -25
c51 -30 166 -56 245 -56 236 1 432 147 432 323 0 30 -5 68 -11 84 -13 36 -64
89 -112 116 l-38 21 60 31 c226 114 373 414 287 583 -68 132 -188 178 -289
111 -50 -33 -168 -155 -219 -225 -34 -48 -44 -51 -28 -10 13 34 13 107 1 139
-35 92 -178 169 -226 121z m570 -121 c-25 -133 -168 -366 -284 -460 -74 -60
-181 -113 -181 -89 0 10 88 159 147 249 118 179 264 337 311 337 11 0 13 -8 7
-37z m-455 -680 c62 -32 116 -92 124 -139 14 -70 -45 -150 -137 -189 -64 -27
-217 -16 -217 16 0 20 158 339 168 339 6 0 33 -12 62 -27z"/>
<path d="M1908 1665 c-200 -74 -438 -402 -438 -605 0 -75 14 -104 79 -162 121
-109 195 -103 327 24 l61 59 13 -31 c23 -55 139 -130 199 -130 65 1 175 90
277 224 58 76 143 226 161 283 15 48 15 53 -1 77 -9 14 -23 26 -31 26 -8 0
-33 -33 -56 -72 -74 -129 -226 -352 -271 -398 -37 -39 -43 -42 -46 -24 -2 11
15 76 38 144 22 68 40 133 40 144 -1 46 -39 106 -87 136 -79 51 -98 43 -158
-66 -91 -165 -220 -335 -277 -365 -98 -53 49 288 183 422 79 79 159 110 189
74 18 -22 37 -18 56 10 37 56 -30 170 -128 219 -58 29 -77 31 -130 11z"/>
</g>
</svg>
